<svg width="50" height="50" viewBox="0 0 400 390" xmlns="http://www.w3.org/2000/svg" class="s-tech__img"><g fill-rule="evenodd"><path d="M0 195.695v195.694h400V0H0v195.695M382.309 17.691c.685.684.685 355.323 0 356.008-.685.684-363.933.684-364.618 0-.685-.685-.685-355.324 0-356.008.685-.685 363.933-.685 364.618 0M120.797 90.128c-.558.408-.742 1.435-.997 5.577-.172 2.793-.588 6.046-.923 7.23-.658 2.326-1.19 4.346-2.114 8.024-.324 1.291-.839 2.965-1.144 3.718-.306.754-.726 2.295-.934 3.425-.209 1.13-.627 2.539-.93 3.131-.303.592-.678 1.869-.833 2.837-.156.969-.526 2.29-.824 2.936-.298.646-.716 2.103-.93 3.239-.214 1.136-.569 2.402-.789 2.814-.22.412-.651 1.86-.957 3.219-.307 1.358-.827 3.174-1.156 4.035-.33.861-.607 1.973-.617 2.472-.009.498-.358 1.731-.774 2.739-.417 1.009-.95 2.791-1.185 3.96-.236 1.169-.59 2.32-.787 2.558-.197.237-.532 1.511-.744 2.831-.213 1.32-.642 2.899-.955 3.509-.312.61-.697 1.902-.856 2.87-.158.969-.515 2.206-.792 2.748-.278.543-.69 1.991-.917 3.219-.227 1.228-.667 2.724-.977 3.324-.311.601-.696 1.964-.855 3.031-.16 1.066-.614 2.649-1.008 3.517-.395.868-.725 2.107-.734 2.752-.01.646-.338 1.881-.731 2.744-.392.863-.837 2.272-.988 3.131-.256 1.45-1.032 4.107-2.457 8.411-.32.969-.752 2.642-.959 3.718-.208 1.077-.722 2.783-1.144 3.791-.421 1.009-.77 2.33-.775 2.936-.005.605-.329 1.807-.722 2.671-.392.863-.837 2.272-.988 3.131-.152.859-.607 2.618-1.012 3.91-2.026 6.46-2.762 9.071-2.758 9.784.002.431-.272 1.312-.61 1.957-.338.646-.794 2.14-1.013 3.319-.219 1.18-.628 2.591-.91 3.137-.283.545-.641 1.869-.798 2.943-.156 1.073-.532 2.44-.835 3.038-.304.597-.737 2.091-.964 3.319-.228 1.228-.645 2.68-.927 3.227-.283.547-.706 2.027-.939 3.29-.234 1.263-.58 2.493-.769 2.732-.189.24-.642 1.797-1.007 3.461-.364 1.664-.811 3.118-.992 3.23-.181.112-.454 1.128-.605 2.258-.152 1.13-.585 2.759-.964 3.62-.378.861-.804 2.332-.946 3.27-.142.937-.518 2.205-.835 2.818-1.88 3.636-.994 3.895 13.279 3.883 14.797-.012 15.138-.096 15.687-3.824.15-1.013.507-2.37.795-3.016.288-.646.779-2.407 1.092-3.914.312-1.507.759-3.268.991-3.914.233-.646.704-2.319 1.047-3.718l1.343-5.48c.395-1.614.899-3.463 1.118-4.109.472-1.386 1.466-5.244 2.268-8.806.315-1.4.809-3.161 1.098-3.914.289-.754.651-2.231.805-3.283.153-1.052.512-2.461.798-3.131.285-.67.718-1.967.962-2.882l.443-1.663h26.207c30.186 0 27.347-.419 28.143 4.151.257 1.476.636 2.887.843 3.136.206.248.622 1.661.924 3.138.302 1.478.817 3.391 1.146 4.252.328.861.605 1.955.614 2.431.009.477.349 1.798.755 2.936a60.513 60.513 0 011.338 4.418l1.049 4.109c.248.969.778 2.818 1.179 4.11.402 1.291.844 2.965.984 3.718.14.753.593 2.301 1.006 3.439.413 1.139.755 2.548.76 3.131.005.584.337 1.786.739 2.671.402.885.856 2.354 1.01 3.266.458 2.705.763 2.757 16.208 2.757 16.434 0 16.937-.185 14.669-5.394-.349-.8-.864-2.424-1.145-3.608a57.053 57.053 0 00-1.094-3.914c-1.32-3.987-1.971-6.179-2.442-8.219-.274-1.184-.765-2.945-1.092-3.914-.328-.968-1.055-3.346-1.617-5.283-.562-1.938-1.208-4.051-1.435-4.697a33.98 33.98 0 01-.787-2.74 47.478 47.478 0 00-.965-3.327c-.324-.968-.819-2.773-1.099-4.01-.28-1.238-.707-2.488-.949-2.78-.241-.291-.553-1.392-.691-2.447-.139-1.054-.558-2.534-.932-3.287-.374-.754-.81-2.163-.969-3.131-.159-.969-.516-2.205-.794-2.748-.277-.542-.691-1.996-.919-3.23-.228-1.234-.627-2.64-.887-3.123-.259-.484-.694-1.848-.966-3.032-.492-2.142-1.189-4.47-2.345-7.828-.334-.969-.831-2.73-1.104-3.914-.472-2.04-1.123-4.232-2.442-8.219a53.548 53.548 0 01-1.081-3.914c-.471-2.04-1.122-4.232-2.442-8.219-.32-.969-.82-2.73-1.111-3.914a64.203 64.203 0 00-1.145-4.012 5387.22 5387.22 0 01-1.232-3.718c-.339-1.023-.871-2.99-1.183-4.373-.311-1.382-.719-2.703-.907-2.935-.187-.232-.556-1.479-.819-2.77-.263-1.292-.706-2.793-.984-3.335-.279-.543-.697-2.02-.931-3.283-.233-1.263-.582-2.492-.774-2.732-.192-.239-.474-1.052-.625-1.805-.152-.753-.712-2.779-1.244-4.501a387.45 387.45 0 01-1.756-5.871 143.905 143.905 0 00-1.374-4.501c-.323-.968-.827-2.818-1.121-4.109-.294-1.292-.809-3.004-1.145-3.804-.336-.8-.612-1.857-.614-2.348-.001-.491-.277-1.42-.613-2.064-.335-.644-.85-2.229-1.142-3.523-.293-1.293-.799-3.144-1.124-4.113-1.432-4.265-2.598-8.252-2.6-8.893-.001-.383-.259-1.187-.573-1.789-.313-.601-.685-1.706-.825-2.456-.141-.75-.577-1.536-.968-1.745-1.152-.616-36.062-.504-36.913.119m20.26 31.82a91.287 91.287 0 002.582 10.929c.396 1.291.824 3.053.952 3.914.129.861.571 2.71.984 4.109.797 2.704 1.304 4.627 2.218 8.415a73.83 73.83 0 001.338 4.697c.424 1.291.779 2.788.788 3.327.01.538.29 1.683.622 2.544.333.861.851 2.761 1.151 4.222.301 1.461.711 2.963.911 3.337.2.374.569 1.813.821 3.197.251 1.385.689 2.968.973 3.518.285.55.644 1.878.799 2.952.155 1.073.518 2.529.806 3.235.288.706.722 2.379.964 3.719.243 1.339.601 2.627.795 2.862.747.902 1.507 6.187.97 6.744-.62.642-37.718.69-38.359.05-.25-.25-.205-.824.128-1.65.281-.697.726-2.323.989-3.615.262-1.292.669-2.701.904-3.131.234-.431.557-1.664.716-2.74.16-1.076.548-2.661.864-3.522.316-.861.803-2.623 1.083-3.914.28-1.292.782-3.053 1.115-3.914.332-.861.613-2.044.622-2.628.009-.584.346-1.904.748-2.935.402-1.03.859-2.752 1.016-3.825.157-1.074.523-2.411.813-2.972.291-.562.646-1.973.791-3.137.145-1.163.595-2.887 1-3.829.406-.942.737-2.093.737-2.556 0-.464.275-1.807.612-2.984a85.289 85.289 0 001.151-4.684c.298-1.399.79-3.249 1.096-4.11.305-.861.685-2.622.845-3.913.16-1.291.528-2.807.818-3.368.29-.561.703-2.422.918-4.136.412-3.284 2.259-8.242 2.85-7.651.189.189.58 1.738.869 3.443m126.372 13.674c-2.631.302-5.273.797-5.871 1.1-.599.303-1.793.677-2.654.832-.861.154-2.094.599-2.74.989-.645.389-1.734.826-2.419.97-.684.145-1.455.516-1.711.825-.257.309-.678.562-.937.562-2.412 0-14.23 10.363-17.633 15.463-.861 1.29-1.667 2.433-1.791 2.541-.27.236-3.733 6.54-4.945 9.005-.802 1.63-1.2 2.64-2.467 6.259-.264.754-.798 2.251-1.187 3.327s-.828 2.75-.976 3.718c-.147.969-.51 2.349-.805 3.067-.296.718-.801 3.448-1.124 6.066a597.642 597.642 0 01-1.024 7.893c-.505 3.615-.229 18.411.384 20.548.215.753.589 3.2.829 5.438.241 2.238.682 4.704.981 5.48.3.776.714 2.291.922 3.367.427 2.212 1.372 5.121 2.415 7.437.387.861.829 2.006.982 2.544.152.538.606 1.446 1.008 2.017.402.572.731 1.267.731 1.545 0 .458.742 1.712 2.801 4.739.397.583.722 1.173.722 1.31 0 .653 6.812 8.428 8.665 9.889l4.322 3.406c1.223.963 2.388 1.751 2.587 1.751.2 0 .986.423 1.748.94.761.516 1.798 1.065 2.305 1.22.506.155 1.185.505 1.508.779.323.273 1.142.615 1.821.759.678.144 1.904.604 2.724 1.022.82.418 1.784.76 2.142.76.358 0 1.421.281 2.363.626.942.344 3.474.856 5.627 1.138l7.436.973c5.461.716 21.72-.586 26.579-2.128 1.057-.335 2.343-.609 2.859-.609s1.683-.34 2.593-.754c.911-.415 2.156-.88 2.767-1.033 5.638-1.415 6.102-2.58 6.102-15.314v-10.551l-.996-.936c-.827-.778-1.108-.855-1.663-.457-.777.557-.884.603-3.211 1.369-.969.319-2.29.76-2.936.98-7.307 2.488-28.373 3.45-32.873 1.502-.859-.373-2.354-.854-3.321-1.071-.967-.217-2.025-.627-2.351-.913-.327-.285-1.034-.651-1.572-.814-.538-.162-1.507-.71-2.153-1.217a119.151 119.151 0 00-2.103-1.61c-2.489-1.844-4.003-3.464-6.043-6.468-1.224-1.802-2.226-3.441-2.227-3.641-.001-.2-.441-1.23-.979-2.289-.537-1.059-.977-2.227-.977-2.594 0-.368-.285-1.351-.635-2.184-.812-1.939-1.795-12.273-1.233-12.964.312-.382 6.394-.497 27.846-.522 44.605-.054 43.845.018 45.458-4.332 1.112-3.001 1.184-25.877.091-29.268-.377-1.169-.685-2.627-.685-3.239 0-2.095-2.508-9.229-5.037-14.33-2.093-4.219-2.484-4.922-2.978-5.354-.247-.215-1.142-1.429-1.99-2.698-1.711-2.561-5.5-6.498-7.608-7.905a153.867 153.867 0 01-2.935-2.026c-1.424-1.011-3.477-2.146-7.241-4.003-.753-.372-2.068-.804-2.922-.96-.853-.156-1.998-.514-2.544-.796-2.522-1.304-14.901-1.971-21.821-1.176m15.881 26.019c3.132 1.611 6.928 5.418 8.439 8.463l1.64 3.303c.942 1.89 2.241 9.255 2.153 12.209-.094 3.203 1.206 3.034-23.283 3.034-16.872 0-21.76-.109-22.061-.49-.458-.58.03-5.726.654-6.893.228-.427.615-1.705.858-2.84.385-1.797 3.55-8.511 4.644-9.852.212-.26.858-1.062 1.435-1.781 1.921-2.395 7.629-5.978 10.313-6.474 3.875-.715 12.746.055 15.208 1.321" fill="#cf90f6"></path><path d="M17.691 17.691c-.685.684-.685 355.323 0 356.008.685.684 363.933.684 364.618 0 .685-.685.685-355.324 0-356.008-.685-.685-363.933-.685-364.618 0M157.71 90.009c.391.209.827.995.968 1.745.14.75.512 1.855.825 2.456.314.602.572 1.406.573 1.789.002.641 1.168 4.628 2.6 8.893.325.969.831 2.82 1.124 4.113.292 1.294.807 2.879 1.142 3.523.336.644.612 1.573.613 2.064.002.491.278 1.548.614 2.348.336.8.851 2.512 1.145 3.804.294 1.291.798 3.141 1.121 4.109.322.969.941 2.994 1.374 4.501a387.45 387.45 0 001.756 5.871c.532 1.722 1.092 3.748 1.244 4.501.151.753.433 1.566.625 1.805.192.24.541 1.469.774 2.732.234 1.263.652 2.74.931 3.283.278.542.721 2.043.984 3.335.263 1.291.632 2.538.819 2.77.188.232.596 1.553.907 2.935.312 1.383.844 3.35 1.183 4.373l1.232 3.718a64.203 64.203 0 011.145 4.012 63.643 63.643 0 001.111 3.914c1.32 3.987 1.971 6.179 2.442 8.219.274 1.184.76 2.945 1.081 3.914 1.319 3.987 1.97 6.179 2.442 8.219.273 1.184.77 2.945 1.104 3.914 1.156 3.358 1.853 5.686 2.345 7.828.272 1.184.707 2.548.966 3.032.26.483.659 1.889.887 3.123.228 1.234.642 2.688.919 3.23.278.543.635 1.779.794 2.748.159.968.595 2.377.969 3.131.374.753.793 2.233.932 3.287.138 1.055.45 2.156.691 2.447.242.292.669 1.542.949 2.78.28 1.237.775 3.042 1.099 4.01.325.969.759 2.466.965 3.327.206.861.56 2.094.787 2.74.227.646.873 2.759 1.435 4.697.562 1.937 1.289 4.315 1.617 5.283.327.969.818 2.73 1.092 3.914.471 2.04 1.122 4.232 2.442 8.219.321.969.813 2.73 1.094 3.914.281 1.184.796 2.808 1.145 3.608 2.268 5.209 1.765 5.394-14.669 5.394-15.445 0-15.75-.052-16.208-2.757-.154-.912-.608-2.381-1.01-3.266-.402-.885-.734-2.087-.739-2.671-.005-.583-.347-1.992-.76-3.131-.413-1.138-.866-2.686-1.006-3.439-.14-.753-.582-2.427-.984-3.718a104.67 104.67 0 01-1.179-4.11l-1.049-4.109a60.513 60.513 0 00-1.338-4.418c-.406-1.138-.746-2.459-.755-2.936-.009-.476-.286-1.57-.614-2.431-.329-.861-.844-2.774-1.146-4.252-.302-1.477-.718-2.89-.924-3.138-.207-.249-.586-1.66-.843-3.136-.796-4.57 2.043-4.151-28.143-4.151h-26.207l-.443 1.663c-.244.915-.677 2.212-.962 2.882-.286.67-.645 2.079-.798 3.131-.154 1.052-.516 2.529-.805 3.283-.289.753-.783 2.514-1.098 3.914-.802 3.562-1.796 7.42-2.268 8.806-.219.646-.723 2.495-1.118 4.109l-1.343 5.48c-.343 1.399-.814 3.072-1.047 3.718-.232.646-.679 2.407-.991 3.914-.313 1.507-.804 3.268-1.092 3.914-.288.646-.645 2.003-.795 3.016-.549 3.728-.89 3.812-15.687 3.824-14.273.012-15.159-.247-13.279-3.883.317-.613.693-1.881.835-2.818.142-.938.568-2.409.946-3.27.379-.861.812-2.49.964-3.62.151-1.13.424-2.146.605-2.258.181-.112.628-1.566.992-3.23.365-1.664.818-3.221 1.007-3.461.189-.239.535-1.469.769-2.732.233-1.263.656-2.743.939-3.29.282-.547.699-1.999.927-3.227.227-1.228.66-2.722.964-3.319.303-.598.679-1.965.835-3.038.157-1.074.515-2.398.798-2.943.282-.546.691-1.957.91-3.137.219-1.179.675-2.673 1.013-3.319.338-.645.612-1.526.61-1.957-.004-.713.732-3.324 2.758-9.784.405-1.292.86-3.051 1.012-3.91.151-.859.596-2.268.988-3.131.393-.864.717-2.066.722-2.671.005-.606.354-1.927.775-2.936.422-1.008.936-2.714 1.144-3.791.207-1.076.639-2.749.959-3.718 1.425-4.304 2.201-6.961 2.457-8.411.151-.859.596-2.268.988-3.131.393-.863.721-2.098.731-2.744.009-.645.339-1.884.734-2.752.394-.868.848-2.451 1.008-3.517.159-1.067.544-2.43.855-3.031.31-.6.75-2.096.977-3.324.227-1.228.639-2.676.917-3.219.277-.542.634-1.779.792-2.748.159-.968.544-2.26.856-2.87.313-.61.742-2.189.955-3.509.212-1.32.547-2.594.744-2.831.197-.238.551-1.389.787-2.558.235-1.169.768-2.951 1.185-3.96.416-1.008.765-2.241.774-2.739.01-.499.287-1.611.617-2.472.329-.861.849-2.677 1.156-4.035.306-1.359.737-2.807.957-3.219.22-.412.575-1.678.789-2.814.214-1.136.632-2.593.93-3.239.298-.646.668-1.967.824-2.936.155-.968.53-2.245.833-2.837.303-.592.721-2.001.93-3.131.208-1.13.628-2.671.934-3.425.305-.753.82-2.427 1.144-3.718.924-3.678 1.456-5.698 2.114-8.024.335-1.184.751-4.437.923-7.23.255-4.142.439-5.169.997-5.577.851-.623 35.761-.735 36.913-.119m-18.923 30.592c-.586 1.35-1.232 3.831-1.449 5.555-.215 1.714-.628 3.575-.918 4.136-.29.561-.658 2.077-.818 3.368-.16 1.291-.54 3.052-.845 3.913-.306.861-.798 2.711-1.096 4.11a85.289 85.289 0 01-1.151 4.684c-.337 1.177-.612 2.52-.612 2.984 0 .463-.331 1.614-.737 2.556-.405.942-.855 2.666-1 3.829-.145 1.164-.5 2.575-.791 3.137-.29.561-.656 1.898-.813 2.972-.157 1.073-.614 2.795-1.016 3.825-.402 1.031-.739 2.351-.748 2.935-.009.584-.29 1.767-.622 2.628-.333.861-.835 2.622-1.115 3.914-.28 1.291-.767 3.053-1.083 3.914-.316.861-.704 2.446-.864 3.522-.159 1.076-.482 2.309-.716 2.74-.235.43-.642 1.839-.904 3.131-.263 1.292-.708 2.918-.989 3.615-.333.826-.378 1.4-.128 1.65.641.64 37.739.592 38.359-.05.537-.557-.223-5.842-.97-6.744-.194-.235-.552-1.523-.795-2.862-.242-1.34-.676-3.013-.964-3.719-.288-.706-.651-2.162-.806-3.235-.155-1.074-.514-2.402-.799-2.952-.284-.55-.722-2.133-.973-3.518-.252-1.384-.621-2.823-.821-3.197-.2-.374-.61-1.876-.911-3.337-.3-1.461-.818-3.361-1.151-4.222-.332-.861-.612-2.006-.622-2.544-.009-.539-.364-2.036-.788-3.327a73.83 73.83 0 01-1.338-4.697c-.914-3.788-1.421-5.711-2.218-8.415-.413-1.399-.855-3.248-.984-4.109-.128-.861-.556-2.623-.952-3.914a91.287 91.287 0 01-2.582-10.929c-.694-4.091-1.001-4.273-2.27-1.347m145.949 15.257c1.937.235 3.969.658 4.514.94.546.282 1.691.64 2.544.796.854.156 2.169.588 2.922.96 3.764 1.857 5.817 2.992 7.241 4.003.861.611 2.182 1.523 2.935 2.026 2.108 1.407 5.897 5.344 7.608 7.905.848 1.269 1.743 2.483 1.99 2.698.494.432.885 1.135 2.978 5.354 2.529 5.101 5.037 12.235 5.037 14.33 0 .612.308 2.07.685 3.239 1.093 3.391 1.021 26.267-.091 29.268-1.613 4.35-.853 4.278-45.458 4.332-21.452.025-27.534.14-27.846.522-.562.691.421 11.025 1.233 12.964.35.833.635 1.816.635 2.184 0 .367.44 1.535.977 2.594.538 1.059.978 2.089.979 2.289.001.2 1.003 1.839 2.227 3.641 2.04 3.004 3.554 4.624 6.043 6.468.511.379 1.457 1.103 2.103 1.61.646.507 1.615 1.055 2.153 1.217.538.163 1.245.529 1.572.814.326.286 1.384.696 2.351.913.967.217 2.462.698 3.321 1.071 4.5 1.948 25.566.986 32.873-1.502.646-.22 1.967-.661 2.936-.98 2.327-.766 2.434-.812 3.211-1.369.555-.398.836-.321 1.663.457l.996.936v10.551c0 12.734-.464 13.899-6.102 15.314-.611.153-1.856.618-2.767 1.033-.91.414-2.077.754-2.593.754s-1.802.274-2.859.609c-4.859 1.542-21.118 2.844-26.579 2.128l-7.436-.973c-2.153-.282-4.685-.794-5.627-1.138-.942-.345-2.005-.626-2.363-.626-.358 0-1.322-.342-2.142-.76-.82-.418-2.046-.878-2.724-1.022-.679-.144-1.498-.486-1.821-.759-.323-.274-1.002-.624-1.508-.779-.507-.155-1.544-.704-2.305-1.22-.762-.517-1.548-.94-1.748-.94-.199 0-1.364-.788-2.587-1.751l-4.322-3.406c-1.853-1.461-8.665-9.236-8.665-9.889 0-.137-.325-.727-.722-1.31-2.059-3.027-2.801-4.281-2.801-4.739 0-.278-.329-.973-.731-1.545-.402-.571-.856-1.479-1.008-2.017-.153-.538-.595-1.683-.982-2.544-1.043-2.316-1.988-5.225-2.415-7.437-.208-1.076-.622-2.591-.922-3.367-.299-.776-.74-3.242-.981-5.48-.24-2.238-.614-4.685-.829-5.438-.613-2.137-.889-16.933-.384-20.548.241-1.722.702-5.274 1.024-7.893.323-2.618.828-5.348 1.124-6.066.295-.718.658-2.098.805-3.067.148-.968.587-2.642.976-3.718s.923-2.573 1.187-3.327c1.267-3.619 1.665-4.629 2.467-6.259 1.212-2.465 4.675-8.769 4.945-9.005.124-.108.93-1.251 1.791-2.541 3.403-5.1 15.221-15.463 17.633-15.463.259 0 .68-.253.937-.562.256-.309 1.027-.68 1.711-.825.685-.144 1.774-.581 2.419-.97.646-.39 1.879-.835 2.74-.989.861-.155 2.055-.529 2.654-.832 2.875-1.455 14.661-1.895 23.178-.864m-16.634 24.462c-2.684.496-8.392 4.079-10.313 6.474-.577.719-1.223 1.521-1.435 1.781-1.094 1.341-4.259 8.055-4.644 9.852-.243 1.135-.63 2.413-.858 2.84-.624 1.167-1.112 6.313-.654 6.893.301.381 5.189.49 22.061.49 24.489 0 23.189.169 23.283-3.034.088-2.954-1.211-10.319-2.153-12.209l-1.64-3.303c-3.828-7.716-13.399-11.676-23.647-9.784" fill="#1b0443"></path></g></svg>