<svg width="50" height="50" viewBox="0 0 400 390" xmlns="http://www.w3.org/2000/svg" class="s-tech__img"><g fill-rule="evenodd"><path d="M0 195v195h400V0H0v195m383.3 0v178.3H16.7l-.051-178.1c-.028-97.955-.008-178.213.044-178.35.076-.2 36.85-.24 183.351-.2l183.256.05V195M273.932 84.397c-8.722 1.58-13.604 7.646-13.604 16.903 0 10.061 5.564 16.19 15.272 16.824 12.764.833 21.012-9.106 17.998-21.688-2.02-8.43-10.598-13.682-19.666-12.039m-127.414 4.714c-.431.431-.467.668-.717 4.789-.461 7.576 2.763-4.384-25.232 93.6-23.612 82.639-23.98 83.975-23.312 84.643.378.378 22.309.677 25.892.354 2.332-.211 1.51 2.162 8.666-25.006 3.505-13.305 6.523-24.753 6.708-25.441l.336-1.25h53.126l.205.75c8.549 31.24 13.816 49.945 14.163 50.292.69.689 1.76.74 15.747.748 16.017.009 15.569.066 15.261-1.943-.207-1.347-53.285-180.956-53.587-181.329-.466-.575-36.687-.777-37.256-.207m19.179 28.039c1.875 8.611 6.321 26.288 14.072 55.95l5.383 20.6-19.608.051c-10.785.028-19.652.008-19.705-.045-.053-.053 1.309-5.341 3.027-11.751C156.918 151.91 165 118.695 165 115.651c0-.616.445.34.697 1.499m97.373 20.049c-.236.095-.485.263-.553.374-.309.5-.123 133.688.187 134.162.491.748.824.765 15.041.765h13.644l.456-.456.455-.455V137.965l-.561-.482-.561-.483-13.839.013c-7.612.007-14.032.09-14.269.186" fill="#fb7b04"></path><path d="M16.693 16.85c-.052.137-.072 80.395-.044 178.35l.051 178.1h366.6V16.7l-183.256-.05c-146.501-.04-183.275 0-183.351.2M282.2 84.778c9.446 2.551 14.252 12.495 10.986 22.728-4.206 13.176-25.134 14.641-31.198 2.183-2.336-4.797-2.377-11.864-.096-16.53 3.429-7.015 12.105-10.596 20.308-8.381m-98.426 4.54c.302.373 53.38 179.982 53.587 181.329.308 2.009.756 1.952-15.261 1.943-13.987-.008-15.057-.059-15.747-.748-.347-.347-5.614-19.052-14.163-50.292l-.205-.75h-53.126l-.336 1.25c-.185.688-3.203 12.136-6.708 25.441-7.156 27.168-6.334 24.795-8.666 25.006-3.583.323-25.514.024-25.892-.354-.668-.668-.3-2.004 23.312-84.643 27.995-97.984 24.771-86.024 25.232-93.6.25-4.121.286-4.358.717-4.789.569-.57 36.79-.368 37.256.207M165 115.651c0 3.044-8.082 36.259-16.134 66.304-1.718 6.41-3.08 11.698-3.027 11.751.053.053 8.92.073 19.705.045l19.608-.051-5.383-20.6c-7.751-29.662-12.197-47.339-14.072-55.95-.252-1.159-.697-2.115-.697-1.499m126.739 21.832l.561.482v133.624l-.455.455-.456.456h-13.644c-14.217 0-14.55-.017-15.041-.765-.31-.474-.496-133.662-.187-134.162.305-.493 1.764-.548 14.822-.56l13.839-.013.561.483" fill="#240c04"></path></g></svg>