<svg data-title="android" version="1.1" id="Social_Icons" xmlns="http://www.w3.org/2000/svg" x="0" y="0" viewBox="0 0 128 128" xml:space="preserve" class="s-tech__img"><style>[data-title=android] .st1{fill:#95cf00}[data-title=android] .st2{fill:#679a1d}[data-title=android] .st4{fill:#fff}</style><g id="_x31__stroke"><path d="M0 0v128h128V0H0zm35.5 112.8h-.1-.7c-.1 0-.2 0-.3-.1H33.8h-.1-.1-.1c-1.1-.1-1.9-.5-2.6-1.2-2.8-2.7-1.7-8.8 3.3-8.8.3 0 .5 0 .8.1.1 0 .2 0 .4.1h.1c1.7 0 2.9.7 3.7 1.6.1.1.1.2.2.2v.1c2 2.8.7 8-3.9 8z" fill="none" class="st0"></path><path d="M15.6 40.5c-4.2 0-7.6 3.3-7.6 7.4v31.8c0 4.1 3.4 7.4 7.6 7.4 4.2 0 7.6-3.3 7.6-7.4V47.9c.1-4.1-3.3-7.4-7.6-7.4zM81.5 10.7L83 8.6l1.4-2.1 3.2-4.6c.4-.6.2-1.3-.4-1.7-.6-.4-1.4-.2-1.8.3l-4.8 7.1-1.5 2.1C74.5 8 69.4 7 64 7S53.5 8 48.9 9.7l-1.4-2.1L46 5.5l-3.4-5c-.4-.6-1.2-.7-1.8-.3-.6.4-.7 1.1-.4 1.7l3.2 4.6L45 8.6l1.4 2.1c-10.8 4.9-18.1 14.2-18.1 24.8h71.3c0-10.6-7.3-19.9-18.1-24.8zM48.7 25.6c-2.1 0-3.8-1.7-3.8-3.7 0-2.1 1.7-3.7 3.8-3.7 2.1 0 3.8 1.7 3.8 3.7s-1.7 3.7-3.8 3.7zm30.6 0c-2.1 0-3.8-1.7-3.8-3.7 0-2.1 1.7-3.7 3.8-3.7 2.1 0 3.8 1.7 3.8 3.7s-1.7 3.7-3.8 3.7zM112.4 40.5c-4.2 0-7.6 3.3-7.6 7.4v31.8c0 4.1 3.4 7.4 7.6 7.4 4.2 0 7.6-3.3 7.6-7.4V47.9c0-4.1-3.4-7.4-7.6-7.4zM28.4 40.5V95c0 3.8 2.8 6.9 6.4 7.7.1 0 .3 0 .4.1h6.9c-.2.7-.3 1.3-.3 2.1v15.7c0 4.1 3.4 7.4 7.6 7.4 4.2 0 7.6-3.3 7.6-7.4v-15.7c0-.7-.1-1.4-.3-2.1h14.2c-.2.7-.3 1.3-.3 2.1v15.7c0 4.1 3.4 7.4 7.6 7.4 4.2 0 7.6-3.3 7.6-7.4v-15.7c0-.7-.1-1.4-.3-2.1h5.8c4.5 0 8.1-3.5 8.1-7.8V40.5h-71z" class="st1"></path></g><path id="c_3_" d="M49.6 95.8c4.2 0 7.7 2.6 7.7 5.8v20.5c0 3.2-3.4 5.8-7.7 5.8-4.2 0-7.7-2.6-7.7-5.8v-20.5c0-3.2 3.4-5.8 7.7-5.8z" class="st2"></path><path d="M92 85.4L72.9 68 53.7 85.4l-19 17.2c.1 0 .2 0 .3.1h.3c.3 0 .5 0 .8.1H111L92 85.4z" class="st2"></path><path fill="#404040" d="M70.7 67.6H120v39.1H70.7z" class="st3"></path><path d="M81.2 89.5v-4.8l12.4-7.2v4.9L85 87.1l8.5 4.7v4.9l-12.3-7.2zM100.4 96.7v-4.9l8.5-4.7-8.5-4.7v-4.9l12.4 7.2v4.8l-12.4 7.2z" class="st4"></path></svg>