<?xml version="1.0" encoding="utf-8"?>
<!-- Generator: Adobe Illustrator 16.0.0, SVG Export Plug-In . SVG Version: 6.00 Build 0)  -->
<!DOCTYPE svg PUBLIC "-//W3C//DTD SVG 1.1//EN" "http://www.w3.org/Graphics/SVG/1.1/DTD/svg11.dtd">
<svg version="1.1" id="Layer_1" xmlns="http://www.w3.org/2000/svg" xmlns:xlink="http://www.w3.org/1999/xlink" x="0px" y="0px"
	 width="361px" height="348.968px" viewBox="0 0 361 348.968" enable-background="new 0 0 361 348.968" xml:space="preserve">
<g>
	<path fill-rule="evenodd" clip-rule="evenodd" fill="#00005B" d="M180.101,349.454c-38.718,0-77.438,0.082-116.156-0.025
		c-29.596-0.084-54.747-19.844-62.019-48.479c-1.267-4.991-1.907-10.072-1.906-15.238C0.029,211.907-0.055,138.104,0.063,64.3
		C0.118,29.094,28.427,0.674,63.572,0.615c77.939-0.133,155.88-0.132,233.818,0c34.997,0.058,63.415,28.358,63.49,63.313
		c0.159,74.054,0.159,148.11,0,222.164c-0.075,34.946-28.473,63.026-63.494,63.361c-0.25,0.002-0.501,0.002-0.751,0.002
		C257.791,349.455,218.946,349.455,180.101,349.454z"/>
	<path fill-rule="evenodd" clip-rule="evenodd" fill="#9898FE" d="M192.761,241.101c-4.59-12.96-9.2-25.919-13.799-38.868
		c-13.059-36.747-26.118-73.495-39.167-110.242c-0.73-2.041-1.24-3.841-4.2-3.8c-11.899,0.16-23.798,0.11-35.698,0.03
		c-2.19-0.01-3.149,0.6-3.21,2.939c-0.13,5.16-1.39,10.1-3.11,14.989c-15.769,44.807-31.448,89.644-47.147,134.471
		c-1.64,4.669-1.42,4.969,3.42,4.979c7.89,0.01,15.779-0.11,23.668,0.06c3.15,0.062,4.7-1.059,5.64-4.13
		c3.08-10.029,6.539-19.948,9.64-29.979c0.85-2.749,2.12-3.56,5-3.529c16.159,0.161,32.317,0.171,48.477-0.01
		c2.959-0.03,4.08,1.03,4.939,3.64c3.26,9.979,6.83,19.859,10.069,29.839c0.99,3.069,2.4,4.539,5.84,4.279
		c4.229-0.32,8.509-0.079,12.769-0.079c4.51,0,9.02,0.01,13.53,0C194.271,245.681,194.351,245.6,192.761,241.101z M101.027,178.185
		c-2.94,0-1.54-1.811-1.16-3.061c5.38-17.789,10.79-35.587,16.188-53.376c0.54-1.79,1.031-3.6,1.851-6.489
		c6.56,21.549,12.799,42.027,19.168,62.936C124.746,178.195,112.886,178.195,101.027,178.185z"/>
	<path fill-rule="evenodd" clip-rule="evenodd" fill="#9898FE" d="M241.215,135.522c9.465-7.93,20.051-11.592,31.78-11.99
		c19.709-0.668,37.169,9.605,41.303,32.398c1.032,5.696,1.234,11.465,1.259,17.216c0.097,22.426,0.045,44.852,0.036,67.28
		c-0.002,4.707-0.242,4.938-4.797,4.978c-7.766,0.068-15.538-0.016-23.298,0.258c-3.679,0.129-4.756-1.215-4.732-4.804
		c0.132-20.922,0.072-41.846,0.055-62.769c-0.002-2.624-0.006-5.238-0.547-7.849c-3.076-14.811-12.436-20.594-27.011-16.575
		c-1.44,0.398-2.847,0.943-4.239,1.493c-5.58,2.206-8.347,5.468-8.195,12.327c0.543,24.419,0.128,48.857,0.298,73.288
		c0.026,3.894-1.202,4.942-4.938,4.821c-7.885-0.253-15.787-0.19-23.676-0.021c-3.138,0.067-4.021-0.996-4.025-4.119
		c-0.056-33.577-0.255-67.152-0.435-100.729c-0.02-3.632,0.119-7.298-0.329-10.885c-0.482-3.85,1.03-4.668,4.547-4.524
		c6.255,0.255,12.536,0.289,18.787-0.005c4.084-0.191,6.495,1.017,7.007,5.275C240.239,132.041,240.723,133.459,241.215,135.522z"/>
</g>
</svg>
