<svg xmlns="http://www.w3.org/2000/svg" viewBox="0 0 50 50" class="s-tech__img"><g data-name="Layer 2"><g data-name="Layer 1"><path d="M47.52 0H2.79a5.13 5.13 0 01-.47 1.15A5.57 5.57 0 010 3.24v44.63A4.66 4.66 0 011.73 50h46.34A4.42 4.42 0 0150 48.13v-45A4.65 4.65 0 0147.52 0z" fill="#9e11c2"></path><path d="M47.52 0H17.11l17.77 15.23L50 28.2v-25A4.65 4.65 0 0147.52 0z" fill="#621291"></path><path d="M47.52 0H2.79a5.13 5.13 0 01-.47 1.15A5.57 5.57 0 010 3.24V38l26.47-18.72 7.2-5.09L37 11.8q6.28-4.43 12.55-8.87A4.74 4.74 0 0147.52 0z" fill="#be14ed"></path><path fill="#fff" d="M10 0h3v50h-3z"></path><path fill="#7c16b5" d="M36.11 16.32l-1.25-1.06"></path><path d="M23.65 38h-2.33v5.73h-2.93V28.1h5.28a5.59 5.59 0 013.87 1.24 4.43 4.43 0 011.37 3.49 5.17 5.17 0 01-.63 2.67 4.4 4.4 0 01-1.9 1.7l3.07 6.39v.16h-3.14zm-2.33-2.61h2.35a2.28 2.28 0 001.71-.62 2.34 2.34 0 00.61-1.7 2.55 2.55 0 00-.57-1.74 2.26 2.26 0 00-1.75-.64h-2.35zM34.06 38.23v5.52h-2.93V28.1h5.54a5.92 5.92 0 012.81.65 4.52 4.52 0 011.87 1.83 5.56 5.56 0 01.65 2.7 4.74 4.74 0 01-1.43 3.63 5.6 5.6 0 01-4 1.32zm0-2.61h2.61a2.43 2.43 0 001.77-.6 2.33 2.33 0 00.61-1.72 2.72 2.72 0 00-.62-1.85 2.18 2.18 0 00-1.69-.74h-2.68z" fill="#fff"></path><path d="M47.52 0h-29.9l15 13.24 1.07.95 1.68-1.09.09-.06 3-2a4.09 4.09 0 011-.62C43 8.14 46.5 5.81 50 3.38v-.22A4.65 4.65 0 0147.52 0z" fill="#7418b0"></path><path d="M48 0H2a2 2 0 00-2 2v46a2 2 0 002 2h46a2 2 0 002-2V2a2 2 0 00-2-2zm0 46a2 2 0 01-2 2H4a2 2 0 01-2-2V4a2 2 0 012-2h42a2 2 0 012 2z" fill="#fff"></path></g></g></svg>