<?xml version="1.0" encoding="utf-8"?>
<!-- Generator: Adobe Illustrator 16.0.0, SVG Export Plug-In . SVG Version: 6.00 Build 0)  -->
<!DOCTYPE svg PUBLIC "-//W3C//DTD SVG 1.1//EN" "http://www.w3.org/Graphics/SVG/1.1/DTD/svg11.dtd">
<svg version="1.1" id="Layer_1" xmlns="http://www.w3.org/2000/svg" xmlns:xlink="http://www.w3.org/1999/xlink" x="0px" y="0px"
	 width="80px" height="80px" viewBox="-37.156 -39.25 80 80" enable-background="new -37.156 -39.25 80 80" xml:space="preserve">
<g>
	<g>
		<path fill="#FFFFFF" d="M34.281,0.75h-20v5.703H28c-2,8.594-8.305,15.727-16.586,18.594L-21.425-7.816
			c3.413-10,13.125-17.137,24.273-17.137c8.566,0,16.301,4.27,21.145,10.86l4.297-3.723c-5.727-7.711-14.867-12.868-25.441-12.868
			c-14.844,0-27.422,10.574-30.578,24.586L9.984,31.586C23.703,28.148,34.281,15.594,34.281,0.75z"/>
		<path fill="#FFFFFF" d="M-28.589,1.035c0,7.996,3.155,15.707,9.141,21.723c6.016,6.016,14.015,9.141,21.718,9.141L-28.589,1.035z"
			/>
	</g>
	<path fill="#663399" d="M2.848-39.25c-22.007,0-40.004,17.996-40.004,40c0,22.008,17.997,40,40.004,40
		c22.004,0,39.996-17.992,39.996-40C42.844-21.254,24.852-39.25,2.848-39.25z M-19.449,23.039
		c-5.985-6.016-9.141-14.008-9.141-21.714L2.559,32.211C-5.434,31.898-13.433,29.031-19.449,23.039z M9.695,31.32L-27.73-6.098
		c3.155-14.012,15.733-24.586,30.578-24.586c10.574,0,19.715,5.156,25.441,12.868l-4.297,3.723
		c-4.844-6.59-12.578-10.86-21.145-10.86c-11.148,0-20.578,7.137-24.273,17.137l32.839,32.863C19.695,22.18,26,15.047,28,6.453
		H14.281V0.75h20C34.281,15.594,23.703,28.148,9.695,31.32z"/>
</g>
</svg>
