<?xml version="1.0" encoding="utf-8"?>
<!-- Generator: Adobe Illustrator 16.0.0, SVG Export Plug-In . SVG Version: 6.00 Build 0)  -->
<!DOCTYPE svg PUBLIC "-//W3C//DTD SVG 1.1//EN" "http://www.w3.org/Graphics/SVG/1.1/DTD/svg11.dtd">
<svg version="1.1" id="Layer_1" xmlns="http://www.w3.org/2000/svg" xmlns:xlink="http://www.w3.org/1999/xlink" x="0px" y="0px"
	 width="271.629px" height="308.483px" viewBox="0 0 271.629 308.483" enable-background="new 0 0 271.629 308.483"
	 xml:space="preserve">
<g>
	<path fill-rule="evenodd" clip-rule="evenodd" fill="#FE4C1E" d="M134.493,308.742c-10.195-3.678-20.769-6.049-31.179-8.975
		c-25.088-7.049-50.205-13.998-75.349-20.844c-2.662-0.725-3.475-1.941-3.702-4.563c-2.878-33.219-5.886-66.426-8.829-99.637
		c-2.359-26.621-4.645-53.247-7.017-79.868C5.802,65.501,3.152,36.149,0.454,6.801c-0.603-6.554-0.725-6.543,5.647-6.543
		c87.103,0,174.205,0,261.308,0.001c4.584,0,4.664,0.012,4.244,4.698c-2.628,29.354-5.317,58.703-7.94,88.058
		c-2.123,23.758-4.155,47.523-6.272,71.281c-2.373,26.619-4.807,53.23-7.192,79.848c-0.882,9.828-1.82,19.65-2.479,29.494
		c-0.202,3.029-1.089,4.465-4.226,5.32c-34.404,9.379-68.76,18.932-103.111,28.504c-0.985,0.273-2.304,0.086-2.938,1.279
		C136.492,308.742,135.493,308.742,134.493,308.742z"/>
	<path fill-rule="evenodd" clip-rule="evenodd" fill="#FE651E" d="M135.986,56.695c0.002-10.12,0.081-20.24-0.047-30.358
		c-0.033-2.641,0.832-3.398,3.428-3.393c34.732,0.071,69.464,0.082,104.195-0.015c2.959-0.009,3.716,1.063,3.444,3.724
		c-0.993,9.741-1.944,19.488-2.856,29.238c-0.602,6.425-1.083,12.861-1.664,19.289c-0.937,10.373-1.93,20.74-2.863,31.113
		c-0.578,6.428-1.057,12.864-1.639,19.292c-0.938,10.373-1.94,20.739-2.887,31.111c-0.563,6.178-1.051,12.363-1.608,18.543
		c-0.959,10.621-1.976,21.236-2.913,31.859c-0.817,9.27-1.522,18.551-2.346,27.82c-0.658,7.406-1.555,14.797-2.062,22.213
		c-0.181,2.629-1.61,3.316-3.663,3.885c-11.26,3.125-22.505,6.305-33.761,9.443c-16.285,4.541-32.597,8.988-48.845,13.66
		c-3.043,0.875-4.018,0.463-3.962-2.836c0.155-9.117,0.053-18.24,0.054-27.359c0.001-1.605,0.289-3.309-1.496-4.289
		c0.354-0.619,0.938-0.904,1.584-1.096c21.599-5.813,43.104-11.973,64.688-17.842c2.496-0.68,3.773-1.875,4.066-4.559
		c1.125-10.301,1.813-20.641,2.79-30.953c1.165-12.303,2.25-24.613,3.345-36.922c0.818-9.2,1.472-18.416,2.54-27.593
		c0.131-1.133,0.097-2.259-0.808-3.14c-1.453-1.097-3.138-0.715-4.728-0.717c-22.114-0.022-44.229-0.004-66.343-0.034
		c-1.962-0.003-4.025,0.408-5.819-0.863c-0.993-1.271-1.005-2.79-1.013-4.28c-0.051-8.723-0.044-17.445-0.004-26.168
		c0.007-1.49,0.005-3.008,0.931-4.312c1.742-1.384,3.815-0.955,5.769-0.958c23.337-0.031,46.674-0.013,70.01-0.031
		c1.598-0.001,3.267,0.313,4.704-0.716c2.117-2.805,1.304-6.207,1.706-9.297c0.717-5.501,1.009-11.064,1.596-16.593
		c0.179-1.687,0.471-3.477-0.79-4.967c-1.425-1.168-3.115-0.78-4.703-0.781c-24.111-0.022-48.223,0-72.334-0.041
		C139.752,57.772,137.643,58.323,135.986,56.695z"/>
	<path fill-rule="evenodd" clip-rule="evenodd" fill="#EAEAEA" d="M217.709,90.498c-1.129,1.213-2.589,0.588-3.872,0.591
		c-24.457,0.044-48.913,0.029-73.37,0.039c-1.494,0.001-2.987,0.104-4.48,0.16c-1.712,1.414-3.779,1.107-5.75,1.113
		c-11.994,0.033-23.988-0.01-35.982,0.027c-4.89,0.016-4.881,0.214-4.565,5.172c0.452,7.104,1.309,14.17,1.778,21.27
		c0.338,5.114,0.932,5.677,6.142,5.689c10.995,0.026,21.99-0.009,32.984,0.021c1.852,0.005,3.783-0.236,5.39,1.068
		c24.964,0.047,49.927,0.079,74.891,0.18c1.244,0.005,2.735-0.752,3.777,0.658c-1.791,1.585-3.999,1.184-6.076,1.187
		c-21.447,0.033-42.896,0.018-64.344,0.021c-1.371,0-2.741-0.001-4.112,0.076c-1.772,0.1-2.808,0.916-2.839,2.754
		c-0.146,8.354-0.157,16.707,0.005,25.059c0.054,2.746,2.145,2.67,4.027,2.682c9.851,0.057,19.702,0.014,29.553,0.027
		c1.496,0.002,3.006-0.107,4.48,0.15c1.148,0.203,2.614,0.131,2.652,1.928c-1.229,1.094-2.759,1.057-4.239,1.063
		c-11.065,0.049-22.131,0.043-33.196,0.008c-1.618-0.006-3.258-0.016-4.571-1.209c-2.863-0.092-5.726-0.258-8.588-0.26
		c-21.234-0.023-42.469-0.088-63.703,0.066c-3.304,0.025-4.064-0.971-4.334-4.164c-1.992-23.628-4.237-47.234-6.398-70.849
		c-0.774-8.451-1.419-16.917-2.364-25.35c-0.349-3.12,1.407-2.776,3.338-2.775c25.856,0.015,51.712,0.013,77.568,0.001
		c1.492-0.001,2.984-0.135,4.476-0.207c16.096,0.056,32.192,0.125,48.288,0.162c10.983,0.024,21.967-0.016,32.949,0.034
		c1.167,0.005,2.504-0.561,3.509,0.584c-1.922,1.625-4.254,1.205-6.459,1.207c-23.207,0.03-46.413,0.019-69.62,0.019
		c-1.122,0-2.251,0.074-3.367,0c-3.09-0.209-4.161,1.252-4.117,4.248c0.108,7.234,0.001,14.473,0.048,21.709
		c0.028,4.247,0.377,4.602,4.809,4.608c23.081,0.034,46.163-0.003,69.245,0.04C213.459,89.31,215.808,88.796,217.709,90.498z"/>
	<path fill-rule="evenodd" clip-rule="evenodd" fill="#EAEAEA" d="M135.986,249.533c-0.497,0.035-0.993,0.068-1.49,0.104
		c-21.489-6.041-42.964-12.137-64.486-18.063c-2.752-0.758-4.147-1.754-4.385-4.83c-1.197-15.438-2.559-30.865-4.021-46.279
		c-0.269-2.836,0.431-3.676,3.326-3.619c9.12,0.178,18.246,0.123,27.369,0.025c2.238-0.025,3.29,0.369,3.453,2.973
		c0.452,7.225,1.268,14.428,1.941,21.639c0.123,1.311-0.175,2.635,1.8,3.135c12.197,3.086,24.36,6.309,36.534,9.484
		c0.161,0.188,0.322,0.373,0.486,0.557c0.776,1.514,0.662,3.16,0.667,4.775c0.023,8.248,0.025,16.496,0,24.742
		C137.174,246.037,137.339,247.96,135.986,249.533z"/>
	<path fill-rule="evenodd" clip-rule="evenodd" fill="#FE651E" d="M135.991,160.232c13.976-0.148,27.952-0.486,41.924,0.174
		c1.059,1.037,0.651,2.316,0.569,3.533c-0.837,12.426-2.34,24.793-3.2,37.217c-0.212,3.053-2.093,4.33-4.676,5.047
		c-10.448,2.906-20.958,5.582-31.417,8.445c-1.101,0.301-2.208,0.451-3.238-0.254l0.073-0.293
		C136.015,196.146,136.003,178.189,135.991,160.232z"/>
	<path fill-rule="evenodd" clip-rule="evenodd" fill="#FEFEFE" d="M135.953,214.394c11.546-3.084,23.073-6.24,34.65-9.197
		c2.62-0.67,3.468-1.895,3.682-4.57c1.072-13.418,2.396-26.814,3.631-40.221c-0.922-1.576-2.463-0.91-3.728-0.916
		c-11.616-0.053-23.234-0.1-34.851,0.02c-2.625,0.029-3.445-0.789-3.402-3.406c0.14-8.491,0.204-16.991-0.024-25.479
		c-0.089-3.291,0.825-4.223,4.165-4.204c24.858,0.141,49.717,0.071,74.575,0.067c-0.812,10.199-1.555,20.405-2.451,30.597
		c-1.596,18.16-3.287,36.313-4.935,54.469c-0.508,5.596-1.048,11.189-1.475,16.793c-0.109,1.424-0.488,2.205-2.004,2.619
		c-22.61,6.15-45.204,12.367-67.801,18.568C135.975,237.82,135.964,226.107,135.953,214.394z"/>
	<path fill-rule="evenodd" clip-rule="evenodd" fill="#FEFEFE" d="M217.709,90.498c-25.875-0.01-51.75-0.083-77.624,0.047
		c-3.328,0.017-4.269-0.884-4.176-4.193c0.234-8.368,0.205-16.75,0.011-25.121c-0.069-3.001,0.876-3.786,3.814-3.776
		c27,0.091,53.999,0.034,80.998,0.021C220.398,68.544,219.342,79.547,217.709,90.498z"/>
	<path fill-rule="evenodd" clip-rule="evenodd" fill="#FE4C1E" d="M135.983,125.649c-14.229,0.06-28.458,0.095-42.688,0.211
		c-1.747,0.015-2.333-0.539-2.483-2.295c-0.851-9.944-1.812-19.879-2.782-29.813c-0.174-1.786,0.103-2.738,2.277-2.718
		c15.226,0.146,30.453,0.182,45.68,0.253C135.985,102.741,135.984,114.195,135.983,125.649z"/>
</g>
</svg>
