<svg viewBox="0 0 58 58" fill="none" xmlns="http://www.w3.org/2000/svg" class="s-tech__img"><path d="M52.742 0H5.258A5.258 5.258 0 000 5.258v47.484A5.258 5.258 0 005.258 58h47.484A5.258 5.258 0 0058 52.742V5.258A5.258 5.258 0 0052.742 0z" fill="#DC395F"></path><path d="M19.384 18.248c1.927 0 3.543-1.51 3.543-3.491 0-1.98-1.616-3.49-3.543-3.49-1.929 0-3.543 1.51-3.543 3.49 0 1.98 1.614 3.492 3.543 3.492zm-7.347 18.696a11.993 11.993 0 00-.313 2.623c0 3.075 1.668 5.116 5.21 5.116 2.94 0 5.322-1.745 7.037-4.563l-1.047 4.204h5.835l3.335-13.376c.833-3.387 2.449-5.145 4.898-5.145 1.928 0 3.126 1.199 3.126 3.178 0 .574-.052 1.198-.26 1.876l-1.72 6.148a9.24 9.24 0 00-.365 2.605c0 2.92 1.72 5.054 5.315 5.054 3.074 0 5.523-1.979 6.877-6.72l-2.292-.886c-1.146 3.177-2.137 3.751-2.918 3.751-.782 0-1.199-.52-1.199-1.562 0-.469.105-.99.26-1.616l1.669-5.99c.416-1.406.573-2.653.573-3.8 0-4.48-2.71-6.819-5.992-6.819-3.074 0-6.2 2.773-7.764 5.691l1.146-5.238h-8.91l-1.25 4.614h4.169L24.89 36.366c-2.016 4.48-5.719 4.553-6.183 4.45-.763-.173-1.251-.463-1.251-1.454 0-.572.104-1.394.364-2.385l3.909-15.502h-9.9l-1.25 4.614h4.115l-2.657 10.855" fill="#fff"></path></svg>