<?xml version="1.0" encoding="utf-8"?>
<!-- Generator: Adobe Illustrator 16.0.0, SVG Export Plug-In . SVG Version: 6.00 Build 0)  -->
<!DOCTYPE svg PUBLIC "-//W3C//DTD SVG 1.1//EN" "http://www.w3.org/Graphics/SVG/1.1/DTD/svg11.dtd">
<svg version="1.1" id="Layer_1" xmlns="http://www.w3.org/2000/svg" xmlns:xlink="http://www.w3.org/1999/xlink" x="0px" y="0px"
	 width="53.244px" height="60px" viewBox="558.378 -29 53.244 60" enable-background="new 558.378 -29 53.244 60"
	 xml:space="preserve">
<path fill="#91C640" d="M584.865,31c-0.863,0-1.609-0.209-2.354-0.655l-7.329-4.32c-1.132-0.655-0.565-0.834-0.179-0.954
	c1.49-0.536,1.788-0.654,3.277-1.489c0.21-0.089,0.389-0.089,0.566,0.089l5.632,3.367c0.179,0.119,0.477,0.119,0.655,0
	l21.959-12.663c0.208-0.089,0.387-0.387,0.387-0.565v-25.327c0-0.297-0.088-0.477-0.387-0.595l-21.869-12.753
	c-0.179-0.09-0.447-0.09-0.655,0l-21.96,12.573c-0.179,0.12-0.388,0.388-0.388,0.567v25.354c0,0.18,0.119,0.478,0.388,0.566
	l6.018,3.486c3.278,1.579,5.245-0.298,5.245-2.265V-9.462c0-0.387,0.298-0.655,0.655-0.655h2.83c0.358,0,0.657,0.269,0.657,0.655
	v24.969c0,4.409-2.355,6.853-6.496,6.853c-1.311,0-2.234,0-5.064-1.4l-5.722-3.277c-1.4-0.864-2.354-2.384-2.354-4.053v-25.354
	c0-1.58,0.863-3.188,2.354-4.023l21.96-12.692c1.43-0.745,3.307-0.745,4.617,0l21.96,12.692c1.4,0.835,2.354,2.324,2.354,4.023
	v25.354c0,1.609-0.865,3.188-2.354,4.053l-22.079,12.753C586.445,30.791,585.7,31,584.865,31z"/>
<path fill="#91C640" d="M591.718,13.54c-9.593,0-11.648-4.439-11.648-8.074c0-0.388,0.267-0.656,0.655-0.656h2.83
	c0.269,0,0.566,0.18,0.655,0.536c0.358,2.921,1.669,4.351,7.508,4.351c4.59,0,6.555-1.042,6.555-3.486
	c0-1.4-0.564-2.443-7.774-3.188c-6.02-0.566-9.773-1.877-9.773-6.764c0-4.41,3.754-7.031,10.04-7.031
	c7.062,0,10.519,2.413,10.995,7.687c0,0.209-0.09,0.388-0.178,0.477c-0.12,0.089-0.299,0.18-0.479,0.18h-2.831
	c-0.267,0-0.564-0.18-0.654-0.447c-0.655-3.039-2.325-4.053-6.854-4.053c-5.064,0-5.631,1.788-5.631,3.1
	c0,1.608,0.655,2.056,7.508,2.979c6.765,0.863,9.952,2.175,9.952,6.853C602.594,10.829,598.661,13.54,591.718,13.54z"/>
</svg>
