<?xml version="1.0" encoding="utf-8"?>
<!-- Generator: Adobe Illustrator 16.0.0, SVG Export Plug-In . SVG Version: 6.00 Build 0)  -->
<!DOCTYPE svg PUBLIC "-//W3C//DTD SVG 1.1//EN" "http://www.w3.org/Graphics/SVG/1.1/DTD/svg11.dtd">
<svg version="1.1" id="Layer_1" xmlns="http://www.w3.org/2000/svg" xmlns:xlink="http://www.w3.org/1999/xlink" x="0px" y="0px"
	 width="80px" height="80px" viewBox="63.5 -2 80 80" enable-background="new 63.5 -2 80 80" xml:space="preserve">
<g>
	<path fill="#525DDC" d="M120.104,60.017c-5.97-5.963-9.26-13.891-9.26-22.318V24.654c0-0.45-0.365-0.815-0.815-0.815
		s-0.815,0.365-0.815,0.815c0,8.43-3.286,16.36-9.255,22.319L80.243,66.657c-0.17,0.169-0.257,0.404-0.237,0.643
		c0.019,0.241,0.143,0.461,0.34,0.601c6.819,4.846,14.826,7.405,23.154,7.405s16.338-2.56,23.157-7.405
		c0.196-0.139,0.319-0.36,0.334-0.601c0.024-0.236-0.06-0.473-0.228-0.643L120.104,60.017L120.104,60.017z M84.724,11.618V1.512
		c0.002-0.449-0.359-0.815-0.809-0.817c-0.146-0.001-0.29,0.038-0.416,0.111C71.163,7.938,63.499,21.18,63.499,35.366
		c0,1.136,0.06,2.352,0.188,3.719c0.032,0.312,0.24,0.579,0.537,0.693c0.09,0.027,0.184,0.043,0.278,0.044
		c0.215,0,0.421-0.085,0.574-0.235L78.82,25.86C82.612,22.093,84.738,16.964,84.724,11.618L84.724,11.618z M123.497,0.806
		c-0.252-0.147-0.563-0.147-0.815,0c-0.252,0.146-0.408,0.415-0.408,0.706v36.186c0,5.378,2.103,10.438,5.91,14.242l6.655,6.65
		c0.153,0.153,0.362,0.24,0.579,0.24c0.021,0,0.046,0,0.07-0.005c0.238-0.022,0.457-0.146,0.601-0.338
		c4.849-6.813,7.411-14.808,7.411-23.123C143.5,21.18,135.841,7.938,123.497,0.806L123.497,0.806z M91.877,38.899L72.162,58.591
		c-0.153,0.154-0.362,0.24-0.579,0.24c-0.021,0-0.044,0-0.065-0.005c-0.238-0.021-0.456-0.145-0.596-0.338
		c-1.101-1.541-2.091-3.158-2.962-4.84c-0.163-0.317-0.102-0.704,0.15-0.957l18.793-18.76c5.967-5.965,9.253-13.887,9.253-22.313
		c0.016-0.45,0.394-0.803,0.844-0.787c0.428,0.015,0.772,0.358,0.787,0.787v13.036C97.787,30.034,95.69,35.094,91.877,38.899z"/>
</g>
</svg>
