<?xml version="1.0" encoding="utf-8"?>
<!-- Generator: Adobe Illustrator 16.0.0, SVG Export Plug-In . SVG Version: 6.00 Build 0)  -->
<!DOCTYPE svg PUBLIC "-//W3C//DTD SVG 1.1//EN" "http://www.w3.org/Graphics/SVG/1.1/DTD/svg11.dtd">
<svg version="1.1" id="Layer_1" xmlns="http://www.w3.org/2000/svg" xmlns:xlink="http://www.w3.org/1999/xlink" x="0px" y="0px"
	 width="343px" height="385px" viewBox="0 0 343 385" enable-background="new 0 0 343 385" xml:space="preserve">
<g>
	<path fill="#5E8D3E" d="M341.148,349.559c-3.709-24.568-7.316-49.154-10.936-73.738c-3.891-26.436-7.84-52.863-11.736-79.299
		c-3.568-24.212-7.133-48.424-10.732-72.632c-2.332-15.686-4.551-31.388-6.971-47.06c-0.996-6.453-2.92-8.02-9.428-8.118
		c-6.248-0.095-12.498-0.125-18.742,0.003c-3.635,0.075-6.533-1.057-8.99-3.731c-6.092-6.631-13.094-12.321-19.482-18.65
		c-1.203-1.19-2.416-2.762-4.4-1.795c0.109,0.442,0.125,0.974,0.002,1.642c-0.271,3.38-0.172,6.75-0.172,10.12
		c0,106.16,0.012,212.319-0.049,318.47c0,3.129,0.988,6.578-1.775,9.227c0.746,0,1.494,0,2.242,0
		c5.676-1.25,11.527-1.281,17.199-2.697c25.09-6.262,50.227-12.34,75.299-18.676C342.818,360.01,342.734,360.057,341.148,349.559z"
		/>
	<path fill="#9EC457" d="M239.512,374.77c0.061-106.15,0.049-212.31,0.049-318.47c0-3.37-0.1-6.74,0.172-10.12
		c0.123-0.667,0.107-1.2-0.002-1.642c-0.355-1.459-1.822-1.831-3.52-1.938c-3.469-0.23-6.6,1.23-9.83,2.13
		c-2.648,0.74-4.32,0.1-5.309-2.52c-1.061-2.81-2.23-5.57-3.67-8.21c-7.74-14.19-18.262-24.34-35.621-24.61
		c-1.42-0.02-2.76-0.44-3.75-1.47c-5.02-5.17-11.28-7.41-18.3-7.92h-12.75c-4.52,1.23-9.36,0.97-13.68,3.27
		c-9.17,4.9-17.03,11.44-23.6,19.4c-15.2,18.45-25.19,39.51-30.36,62.83c-0.81,3.62-2.55,5.78-6.07,6.73
		c-6.03,1.63-11.94,3.69-17.91,5.53c-6.08,1.88-12.23,3.56-18.2,5.81c-4.24,1.59-6.77,4.56-7.44,9.05c-0.26,1.73-0.6,3.44-0.84,5.18
		c-2.73,20.29-5.28,40.6-7.94,60.9c-2.59,19.69-5.15,39.37-7.67,59.06c-2.88,22.541-5.87,45.061-8.71,67.609
		c-1.45,11.521-3.03,23.021-4.48,34.541c-0.38,2.99,0.52,4.879,3.67,5.359c1.11,0.17,2.19,0.51,3.3,0.701
		c34.35,5.859,68.68,11.85,103.02,17.77c34.21,5.9,68.421,11.83,102.64,17.75c7.061,1.221,14.26,0.99,21.271,2.51h3.75
		c0,0,0.002-0.002,0.004-0.004C240.5,381.348,239.512,377.898,239.512,374.77z M174.102,29.04c3.471,9.76,4.5,19.89,4.551,30.17
		c0.01,1.6-0.48,2.5-2.092,2.99c-12.029,3.66-24.049,7.38-36.079,11.07c-0.18,0.05-0.43-0.1-1.16-0.29
		c5.76-17.95,12.86-34.87,29.43-45.76C172.492,24.75,172.641,24.92,174.102,29.04z M98.062,71.76c5.79-15.6,13.67-29.98,24.85-42.41
		c5.65-6.29,12.08-11.66,20.07-14.72c6.97-2.68,14-3.4,21.46,0.6c-6.59,3.97-12.15,8.48-16.74,14.09
		c-10.5,12.81-17.17,27.5-20.84,43.52c-0.91,3.98-2.58,5.76-6.45,6.8c-8.88,2.41-17.62,5.35-26.94,8.24
		C94.321,81.98,96.162,76.86,98.062,71.76z M180.131,127.67c-3.51,12.23-6.74,24.54-9.86,36.88c-0.75,2.99-1.79,3.11-4.479,2.2
		c-10.8-3.66-21.83-5.3-33.16-2.61c-3.19,0.76-6.18,1.95-8.82,3.94c-8.08,6.07-8.96,16.66-1.86,23.81
		c4.53,4.559,10.08,7.77,15.42,11.229c6.82,4.432,13.41,9.102,19.5,14.531c27.13,24.17,20.611,75.66-9.52,92.42
		c-9.43,5.24-19.47,7.57-30.2,7.34c-18.73-0.18-35.58-5.68-50.19-17.65c-1.9-1.561-2.39-3.02-1.78-5.42
		c2.32-9.199,4.55-18.42,6.54-27.689c0.64-3,1.49-2.65,3.56-1.27c9,5.988,18.45,11.08,29.35,12.59
		c6.78,0.939,13.16-0.01,17.26-6.291c4.16-6.379,3.03-12.859-0.52-19.119c-1.36-2.41-3.17-4.521-5.29-6.291
		c-2.87-2.4-5.83-4.699-8.8-6.98c-3.86-2.969-7.84-5.789-11.65-8.809c-14.78-11.73-19.54-27.5-18.07-45.65
		c2.66-32.91,25.85-58.37,63.34-64.09c12.09-1.84,24.1-1.97,36.06,1.2C180.451,122.86,181.131,124.18,180.131,127.67z
		 M207.371,52.61c-4.66,1.36-9.289,2.83-13.9,4.33c-1.83,0.6-2.35,0.02-2.439-1.84c-0.48-10.35-1.689-20.6-5.529-31.1
		c4.98,0.87,8.369,3.05,11.389,5.88c5.881,5.54,9.211,12.6,11.861,20.07C209.311,51.52,208.951,52.15,207.371,52.61z"/>
</g>
</svg>
