<svg width="55" height="50" viewBox="0 0 55 55" fill="none" xmlns="http://www.w3.org/2000/svg" class="s-tech__img"><path fill-rule="evenodd" clip-rule="evenodd" d="M11.176 17.966l16.267 31.976L.1 17.966h11.075zM43.715 17.966L27.448 49.942 54.79 17.966H43.715z" fill="#EA6C00"></path><path fill-rule="evenodd" clip-rule="evenodd" d="M11.175 17.966h32.534L27.442 49.942 11.175 17.966z" fill="#FDAD00"></path><path fill-rule="evenodd" clip-rule="evenodd" d="M27.442.244L12.031 1.88l-.856 16.086L27.442.244zM27.442.244l15.41 1.636.857 16.086L27.442.244z" fill="#FDD231"></path><path fill-rule="evenodd" clip-rule="evenodd" d="M54.79 17.966L42.859 1.88l.856 16.086H54.79zM.1 17.966L12.033 1.88l-.856 16.086H.1z" fill="#FDAD00"></path><path fill-rule="evenodd" clip-rule="evenodd" d="M27.442.244L11.175 17.966h32.534L27.442.244z" fill="#FEEEB7"></path></svg>