<?xml version="1.0" encoding="utf-8"?>
<!-- Generator: Adobe Illustrator 16.0.0, SVG Export Plug-In . SVG Version: 6.00 Build 0)  -->
<!DOCTYPE svg PUBLIC "-//W3C//DTD SVG 1.1//EN" "http://www.w3.org/Graphics/SVG/1.1/DTD/svg11.dtd">
<svg version="1.1" id="Layer_1" xmlns="http://www.w3.org/2000/svg" xmlns:xlink="http://www.w3.org/1999/xlink" x="0px" y="0px"
	 width="359px" height="359px" viewBox="0 0 359 359" enable-background="new 0 0 359 359" xml:space="preserve">
<g>
	<path fill-rule="evenodd" clip-rule="evenodd" fill="#00769C" d="M181.888,359.288c-1.399,0-2.798,0-4.197,0
		c-1.134-0.71-2.387-0.188-3.575-0.35c-1.369,0.177-2.799-0.384-4.121,0.35c-1.633,0-3.265,0-4.897,0
		c-4.913-0.9-9.912-0.684-14.86-1.153c-12.049-1.146-23.476-4.779-34.717-8.948c-20.186-7.487-38.342-18.541-54.449-32.763
		c-15.896-14.036-29.258-30.207-39.555-48.865C12.379,250.999,6,233.481,2.497,214.926c-1.143-6.051-1.012-12.254-1.446-18.389
		c-0.04-0.567,0.099-1.169-0.352-1.647c0-1.632,0-3.265,0-4.896c0.734-1.319,0.173-2.749,0.35-4.115
		c-0.161-1.189,0.361-2.444-0.35-3.58c0-1.399,0-2.798,0-4.197c0.71-1.134,0.189-2.387,0.35-3.575
		c-0.176-1.368,0.384-2.799-0.35-4.121c0-1.632,0-3.265,0-4.897c0.901-4.913,0.685-9.912,1.154-14.86
		c1.144-12.049,4.777-23.478,8.948-34.718c7.49-20.184,18.542-38.34,32.764-54.45c13.875-15.719,29.846-28.976,48.243-39.229
		c16.725-9.321,34.458-15.812,53.253-19.344c6.053-1.137,12.254-1.007,18.389-1.454c0.788-0.058,1.637,0.257,2.347-0.344
		c1.399,0,2.798,0,4.198,0c1.319,0.734,2.749,0.173,4.115,0.35c1.189-0.161,2.445,0.361,3.581-0.35c1.399,0,2.798,0,4.197,0
		c1.134,0.71,2.387,0.188,3.574,0.35c1.369-0.176,2.8,0.384,4.121-0.35c1.399,0,2.798,0,4.197,0
		c5.153,0.829,10.378,0.692,15.561,1.144c7.813,0.681,15.333,2.699,22.806,4.92c24.824,7.382,46.966,19.735,66.355,36.804
		c16.004,14.088,29.413,30.377,39.728,49.167c9.044,16.477,15.366,33.891,18.85,52.327c1.144,6.051,1.009,12.254,1.454,18.388
		c0.058,0.789-0.256,1.638,0.345,2.347c0,1.399,0,2.798,0,4.198c-0.733,1.319-0.173,2.748-0.35,4.115
		c0.161,1.189-0.36,2.444,0.35,3.58c0,1.399,0,2.798,0,4.197c-0.71,1.134-0.188,2.387-0.35,3.574c0.177,1.369-0.384,2.8,0.35,4.121
		c0,1.632,0,3.265,0,4.896c-0.9,4.913-0.685,9.913-1.154,14.86c-1.144,12.05-4.777,23.478-8.948,34.718
		c-7.489,20.185-18.542,38.34-32.763,54.449c-13.876,15.72-29.846,28.977-48.243,39.229c-16.725,9.32-34.458,15.812-53.253,19.344
		c-6.054,1.138-12.256,1.007-18.39,1.454c-0.788,0.058-1.637-0.257-2.347,0.344c-1.633,0-3.265,0-4.897,0
		c-1.105-0.708-2.334-0.189-3.495-0.35C184.226,359.099,182.995,358.579,181.888,359.288z"/>
	<path fill-rule="evenodd" clip-rule="evenodd" fill="#4198B5" d="M174.141,1.733c-1.398-0.101-2.913,0.575-4.146-0.623
		c1.399,0,2.798,0,4.197,0C174.672,1.359,174.655,1.567,174.141,1.733z"/>
	<path fill-rule="evenodd" clip-rule="evenodd" fill="#4198B5" d="M189.583,1.11c-1.233,1.198-2.748,0.522-4.146,0.623
		c-0.515-0.166-0.532-0.374-0.052-0.623C186.784,1.11,188.184,1.11,189.583,1.11z"/>
	<path fill-rule="evenodd" clip-rule="evenodd" fill="#4198B5" d="M0.7,170.405c1.199,1.233,0.522,2.748,0.623,4.146
		c-0.166,0.514-0.374,0.531-0.623,0.052C0.7,173.204,0.7,171.804,0.7,170.405z"/>
	<path fill-rule="evenodd" clip-rule="evenodd" fill="#4198B5" d="M358.255,174.551c0.102-1.398-0.575-2.913,0.623-4.146
		c0,1.399,0,2.798,0,4.197C358.629,175.082,358.421,175.065,358.255,174.551z"/>
	<path fill-rule="evenodd" clip-rule="evenodd" fill="#4198B5" d="M1.323,185.848c-0.101,1.397,0.576,2.912-0.623,4.146
		c0-1.399,0-2.799,0-4.197C0.949,185.315,1.157,185.333,1.323,185.848z"/>
	<path fill-rule="evenodd" clip-rule="evenodd" fill="#4198B5" d="M358.878,189.993c-1.198-1.233-0.521-2.748-0.623-4.146
		c0.166-0.515,0.374-0.531,0.623-0.052C358.878,187.194,358.878,188.594,358.878,189.993z"/>
	<path fill-rule="evenodd" clip-rule="evenodd" fill="#4198B5" d="M169.995,359.288c1.233-1.198,2.748-0.521,4.146-0.623
		c0.514,0.166,0.532,0.375,0.052,0.623C172.793,359.288,171.394,359.288,169.995,359.288z"/>
	<path fill-rule="evenodd" clip-rule="evenodd" fill="#2589AB" d="M174.141,1.733c0.022-0.207,0.04-0.415,0.052-0.623
		c1.166,0,2.332,0,3.498,0C176.622,1.971,175.373,1.807,174.141,1.733z"/>
	<path fill-rule="evenodd" clip-rule="evenodd" fill="#2589AB" d="M185.386,1.11c0.011,0.208,0.028,0.417,0.052,0.624
		c-1.232,0.074-2.481,0.237-3.55-0.624C183.054,1.11,184.22,1.11,185.386,1.11z"/>
	<path fill-rule="evenodd" clip-rule="evenodd" fill="#2589AB" d="M0.7,174.603c0.208-0.018,0.416-0.035,0.624-0.052
		c0.077,1.233,0.232,2.48-0.624,3.55C0.7,176.934,0.7,175.769,0.7,174.603z"/>
	<path fill-rule="evenodd" clip-rule="evenodd" fill="#2589AB" d="M358.255,174.551c0.208,0.016,0.416,0.033,0.623,0.052
		c0,1.166,0,2.332,0,3.498C358.022,177.031,358.178,175.784,358.255,174.551z"/>
	<path fill-rule="evenodd" clip-rule="evenodd" fill="#2589AB" d="M1.323,185.848c-0.208-0.017-0.416-0.033-0.623-0.052
		c0-1.166,0-2.332,0-3.498C1.555,183.367,1.4,184.614,1.323,185.848z"/>
	<path fill-rule="evenodd" clip-rule="evenodd" fill="#2589AB" d="M358.878,185.796c-0.208,0.018-0.416,0.034-0.623,0.052
		c-0.077-1.233-0.232-2.48,0.623-3.55C358.878,183.464,358.878,184.63,358.878,185.796z"/>
	<path fill-rule="evenodd" clip-rule="evenodd" fill="#2589AB" d="M174.192,359.288c-0.011-0.208-0.028-0.416-0.052-0.623
		c1.232-0.074,2.481-0.237,3.55,0.623C176.524,359.288,175.358,359.288,174.192,359.288z"/>
	<path fill-rule="evenodd" clip-rule="evenodd" fill="#2589AB" d="M181.888,359.288c1.068-0.863,2.319-0.681,3.549-0.621
		c0.465,0.247,0.447,0.454-0.051,0.621C184.22,359.288,183.054,359.288,181.888,359.288z"/>
	<path fill-rule="evenodd" clip-rule="evenodd" fill="#4198B5" d="M185.386,359.288c0.011-0.207,0.027-0.415,0.051-0.621
		c1.179,0.045,2.452-0.443,3.446,0.621C187.718,359.288,186.551,359.288,185.386,359.288z"/>
	<path fill-rule="evenodd" clip-rule="evenodd" fill="#FEFEFE" d="M13.321,180.026c0.173-91.829,75.22-166.642,166.814-166.295
		c91.774,0.348,166.294,75.1,166.121,166.641c-0.174,91.823-75.227,166.643-166.815,166.295
		C87.665,346.317,13.148,271.567,13.321,180.026z"/>
	<path fill-rule="evenodd" clip-rule="evenodd" fill="#00769C" d="M142.148,263.655c-17.989-50.844-35.784-101.14-53.783-152.014
		c5.799,0,11.198-0.15,16.583,0.064c2.629,0.105,3.573-0.628,3.278-3.278c-0.41-3.669,1.561-8.46-0.81-10.754
		c-2.167-2.097-6.881-0.566-10.469-0.583c-12.589-0.057-25.179-0.012-37.769-0.04c-1.114-0.002-2.289,0.321-3.374-0.297
		c47.006-73.229,155.656-91.425,226.138-25.881c-5.896,0.494-11.455,1.222-16.372,4.308c-9.102,5.71-13.781,13.93-14.008,24.63
		c-0.061,2.864,1.194,5.415,2.796,7.768c4.719,6.928,9.726,13.682,14.089,20.828c11.794,19.315,13.839,40.172,8.974,61.951
		c-3.97,17.769-11.111,34.512-16.839,51.712c-2.348,7.053-4.904,14.037-7.44,21.263c-1.294-1.068-1.388-2.484-1.806-3.664
		c-17.055-48.116-34.071-96.246-51.093-144.375c-1.289-3.643-1.287-3.646,2.628-3.649c5.013-0.002,10.028-0.115,15.036,0.051
		c2.2,0.073,2.833-0.635,2.705-2.755c-0.168-2.787-0.256-5.613,0.017-8.384c0.306-3.106-1.035-3.562-3.78-3.546
		c-18.883,0.113-37.768,0.06-56.652,0.06c-9.675,0-19.352,0.084-29.025-0.058c-2.515-0.037-3.236,0.772-3.079,3.176
		c0.189,2.902,0.177,5.833,0.001,8.737c-0.129,2.14,0.523,2.835,2.715,2.769c5.124-0.157,10.258,0.022,15.385-0.086
		c1.97-0.042,3.058,0.365,3.796,2.486c7.151,20.537,14.436,41.026,21.723,61.516c0.491,1.38,0.659,2.641,0.164,4.049
		c-9.717,27.647-19.412,55.301-29.117,82.952C142.685,262.821,142.531,263.007,142.148,263.655z"/>
	<path fill-rule="evenodd" clip-rule="evenodd" fill="#00769C" d="M180.23,199.768c5.991,16.879,11.792,33.188,17.567,49.504
		c8.376,23.664,16.683,47.353,25.168,70.977c0.968,2.693,0.34,3.396-2.197,4.096c-28.212,7.792-56.319,7.518-84.385-0.731
		c-1.918-0.563-2.875-0.937-1.943-3.387c14.999-39.429,29.883-78.901,44.8-118.361C179.444,201.326,179.73,200.819,180.23,199.768z"
		/>
	<path fill-rule="evenodd" clip-rule="evenodd" fill="#00769C" d="M310.19,107.582c37.995,62.473,20.807,161.721-59.783,204.479
		c3.226-9.083,6.301-17.799,9.416-26.5c14.813-41.375,29.532-82.784,44.507-124.1C311.098,142.79,312.574,120.865,310.19,107.582z"
		/>
	<path fill-rule="evenodd" clip-rule="evenodd" fill="#00769C" d="M41.96,121.568c22.61,63.918,44.943,127.055,67.425,190.61
		C43.94,278.066,10.76,196.334,41.96,121.568z"/>
</g>
</svg>
