<?xml version="1.0" encoding="utf-8"?>
<!-- Generator: Adobe Illustrator 16.0.0, SVG Export Plug-In . SVG Version: 6.00 Build 0)  -->
<!DOCTYPE svg PUBLIC "-//W3C//DTD SVG 1.1//EN" "http://www.w3.org/Graphics/SVG/1.1/DTD/svg11.dtd">
<svg version="1.1" id="Layer_1" xmlns="http://www.w3.org/2000/svg" xmlns:xlink="http://www.w3.org/1999/xlink" x="0px" y="0px"
	 width="99.168px" height="87.465px" viewBox="0 0 99.168 87.465" enable-background="new 0 0 99.168 87.465" xml:space="preserve">
<g>
	<path fill-rule="evenodd" clip-rule="evenodd" d="M0.268,50.993c0.311-6.71,0.958-13.374,2.75-19.88
		c1.872-6.793,5.379-12.637,10.218-17.722C18.516,7.842,24.771,3.73,31.773,0.7c2.911-1.259,5.458-0.341,6.839,2.522
		c1.202,2.491,2.385,4.992,3.554,7.499c1.357,2.909,0.422,5.56-2.5,6.878c-3.307,1.492-6.436,3.248-9.188,5.634
		c-4.119,3.571-6.53,8.149-7.878,13.35c-0.779,3.008-1.153,6.072-1.257,9.178c-0.022,0.678,0.182,0.789,0.789,0.786
		c4.551-0.022,9.103-0.017,13.654-0.012c3.44,0.004,5.37,1.948,5.371,5.413c0.003,10.07,0.003,20.142,0,30.212
		c-0.001,3.441-1.96,5.413-5.393,5.415c-9.78,0.006-19.561-0.056-29.34,0.036c-3.034,0.028-5.27-0.848-6.314-3.871
		c0-9.103,0-18.206,0-27.31c0.22-1.158,0.042-2.328,0.1-3.49C0.242,52.292,0.139,51.64,0.268,50.993z"/>
	<path fill-rule="evenodd" clip-rule="evenodd" d="M99.278,14.207c-0.73,2.125-2.423,3.124-4.364,3.995
		c-4.252,1.908-8.044,4.493-10.97,8.196c-2.902,3.672-4.488,7.921-5.378,12.465c-0.435,2.221-0.604,4.47-0.763,6.723
		c-0.051,0.73,0.094,0.979,0.897,0.971c4.518-0.044,9.038,0.071,13.554-0.052c3.332-0.091,5.515,2.267,5.491,5.448
		c-0.072,10.069-0.024,20.14-0.027,30.209c-0.001,3.443-1.957,5.412-5.391,5.414c-10.102,0.006-20.204,0.006-30.306-0.001
		c-3.384-0.002-5.354-1.975-5.354-5.345c0.001-8.649-0.031-17.3,0.024-25.948c0.044-6.812,0.489-13.592,1.678-20.32
		c1.879-10.644,7.145-19.274,15.321-26.215c4.43-3.76,9.372-6.691,14.687-9.009c2.75-1.199,5.313-0.278,6.637,2.428
		c1.448,2.958,2.845,5.94,4.264,8.912C99.278,12.787,99.278,13.497,99.278,14.207z"/>
</g>
</svg>
